<?xml version="1.0" encoding="UTF-8"?>
<svg width="480px" height="480px" viewBox="0 0 480 480" version="1.1" xmlns="http://www.w3.org/2000/svg" xmlns:xlink="http://www.w3.org/1999/xlink">
    <title>donation-form</title>
    <g id="donation-form" stroke="none" stroke-width="1" fill="none" fill-rule="evenodd">
        <rect fill="#FFFFFF" x="0" y="0" width="480" height="480"></rect>
        <g id="Group-5" transform="translate(30.000000, 30.000000)">
            <g id="Group" transform="translate(127.000000, 0.000000)" fill="#E59E6E">
                <text id="YourFundraiser" font-family="HelveticaNeue-Bold, Helvetica Neue" font-size="20.2105263" font-weight="bold" letter-spacing="-0.631578947">
                    <tspan x="28.2105263" y="20">YourFundraiser</tspan>
                </text>
                <g id="001-heart-1" fill-rule="nonzero">
                    <path d="M2.02185156,12.9765625 L0.646851563,12.9765625 C0.290597656,12.9765625 0.0023203125,13.2648398 0.0023203125,13.6210938 L0.0023203125,21.3554688 C0.0023203125,21.7117227 0.290597656,22 0.646851563,22 L2.02185156,22 C3.08807813,22 3.95544531,21.1326328 3.95544531,20.0664062 L3.95544531,14.9101562 C3.95544531,13.8439297 3.08812109,12.9765625 2.02185156,12.9765625 Z" id="Path"></path>
                    <path d="M21.8089609,14.2269102 C21.7316172,14.0980469 21.6285352,13.9948789 21.5125195,13.9046445 C21.0379297,13.4894805 20.2383242,13.5287109 19.7723281,14.0335937 L16.8461133,17.4109375 L16.7558789,17.5140195 C16.3949844,17.9136289 15.8793164,18.1328125 15.3379531,18.1328125 L10.3363906,18.1328125 C9.97541016,18.1328125 9.69185937,17.8491758 9.69185937,17.4882812 C9.69185937,17.1273008 9.97541016,16.84375 10.3363906,16.84375 L14.2680312,16.84375 C14.9770156,16.84375 15.5570937,16.2636719 15.5570937,15.5546875 L15.5570937,15.5417969 C15.5442031,14.8328125 14.9770156,14.265625 14.2680312,14.265625 L11.9348281,14.265625 C11.5482812,14.265625 11.1340625,14.1236992 10.8004531,13.8401914 C9.22783984,12.4608945 6.93326562,12.3706602 5.24459375,13.54375 L5.24459375,21.4714414 C6.52076562,21.8195312 7.83560937,22 9.16330078,22 L14.9125625,22 C16.3304883,22 17.6711562,21.3296445 18.5219375,20.1952695 L21.6157305,16.0702695 C22.0670312,15.4777734 22.1010625,14.6652344 21.8089609,14.2269102 Z" id="Path"></path>
                    <path d="M17.2847813,1.24587891 C16.5699102,0.442449219 15.5789219,0 14.4943906,0 C13.283875,0 12.2345352,0.572386719 11.4598516,1.65524219 C11.4017578,1.73641016 11.3474023,1.81762109 11.2964844,1.89797266 C11.2456094,1.81757812 11.1912539,1.73641016 11.1331602,1.65524219 C10.3584766,0.572386719 9.30913672,0 8.09862109,0 C7.01408984,0 6.02310156,0.442449219 5.30827344,1.24583594 C4.62988281,2.00827344 4.25622656,3.02753516 4.25622656,4.11589062 C4.25622656,5.29860547 4.71517578,6.38996875 5.70044922,7.55055469 C6.56021094,8.56311328 7.79337109,9.60394531 9.22122266,10.8091328 C9.74887891,11.2545039 10.2945391,11.715043 10.8743594,12.2175625 C10.9954883,12.3225352 11.1459648,12.375043 11.2964844,12.375043 C11.4469609,12.375043 11.5974805,12.3225352 11.7186094,12.2175625 C12.2983438,11.7151289 12.843918,11.2546328 13.3715742,10.8093477 C14.2886133,10.0353086 15.0805703,9.36688672 15.7678125,8.71848828 C17.1021211,7.45958984 18.3367852,6.03066406 18.3367852,4.11593359 C18.3367852,3.02757812 17.9631719,2.00831641 17.2847813,1.24587891 Z" id="Path"></path>
                </g>
            </g>
            <g id="Group-4" transform="translate(0.000000, 45.000000)">
                <rect id="Rectangle" fill="#F7EDE8" x="0" y="0" width="420" height="50"></rect>
                <text id="Donation-Form" font-family="HelveticaNeue-Medium, Helvetica Neue" font-size="14" font-weight="400" fill="#182D39">
                    <tspan x="161.896" y="30">Donation Form</tspan>
                </text>
            </g>
            <g id="Group-24" transform="translate(9.000000, 111.000000)">
                <g id="Group-8">
                    <rect id="Rectangle" stroke="#BCC1C5" stroke-width="1.16606376" fill="#FFFFFF" x="0.58303188" y="19.0778171" width="188.994718" height="34.3988809" rx="4.66425504"></rect>
                    <text id="First-Name" font-family="HelveticaNeue, Helvetica Neue" font-size="11.5592408" font-weight="normal" fill="#BCC1C5">
                        <tspan x="12.1142201" y="40.3811311">First Name</tspan>
                    </text>
                    <text id="First-Name" font-family="HelveticaNeue-Medium, Helvetica Neue" font-size="9.24739261" font-weight="400" fill="#15232B">
                        <tspan x="0" y="9">First Name</tspan>
                    </text>
                    <text id="Last-Name" font-family="HelveticaNeue-Medium, Helvetica Neue" font-size="9.24739261" font-weight="400" fill="#15232B">
                        <tspan x="209.066334" y="9">Last Name</tspan>
                    </text>
                    <g id="Group-2" transform="translate(209.176860, 18.065274)">
                        <rect id="Rectangle" stroke="#BCC1C5" stroke-width="1.16606376" fill="#FFFFFF" x="0.58303188" y="0.58303188" width="188.994718" height="34.3988809" rx="4.66425504"></rect>
                        <text id="Last-Name" font-family="HelveticaNeue, Helvetica Neue" font-size="11.5592408" font-weight="normal" fill="#BCC1C5">
                            <tspan x="16.2714909" y="21.8863459">Last Name</tspan>
                        </text>
                    </g>
                </g>
                <g id="Group" transform="translate(0.000000, 67.000000)">
                    <rect id="Rectangle" stroke="#BCC1C5" stroke-width="1.16606376" fill="#FFFFFF" x="0.58303188" y="19.0778171" width="188.994718" height="34.3988809" rx="4.66425504"></rect>
                    <text id="Phone-Number" font-family="HelveticaNeue, Helvetica Neue" font-size="11.5592408" font-weight="normal" fill="#C4C8CC">
                        <tspan x="12.1142201" y="40.3811311">Phone Number</tspan>
                    </text>
                    <text id="Phone-Number" font-family="HelveticaNeue-Medium, Helvetica Neue" font-size="9.24739261" font-weight="400" fill="#162731">
                        <tspan x="0" y="9">Phone Number</tspan>
                    </text>
                    <text id="Email-Address" font-family="HelveticaNeue-Medium, Helvetica Neue" font-size="9.24739261" font-weight="400" fill="#162731">
                        <tspan x="209.066334" y="9">Email Address</tspan>
                    </text>
                    <g id="Group-2" transform="translate(209.176860, 18.065274)">
                        <rect id="Rectangle" stroke="#BCC1C5" stroke-width="1.16606376" fill="#FFFFFF" x="0.58303188" y="0.58303188" width="188.994718" height="34.3988809" rx="4.66425504"></rect>
                        <text id="Email-Address" font-family="HelveticaNeue, Helvetica Neue" font-size="11.5592408" font-weight="normal" fill="#C4C8CC">
                            <tspan x="16.2714909" y="21.8863459">Email Address</tspan>
                        </text>
                    </g>
                </g>
                <g id="Group-3-Copy-3" transform="translate(1.000000, 134.000000)">
                    <rect id="Rectangle" stroke="#BCC1C5" stroke-width="1.16606376" fill="#FFFFFF" x="0.58303188" y="19.0778171" width="398.171578" height="34.3988809" rx="4.66425504"></rect>
                    <text id="Donation-Amount" font-family="HelveticaNeue, Helvetica Neue" font-size="11.5592408" font-weight="normal" fill="#DCDFE2">
                        <tspan x="24.1142201" y="40.3811311">Donation Amount</tspan>
                    </text>
                    <text id="$" font-family="HelveticaNeue, Helvetica Neue" font-size="12" font-weight="normal" fill="#162731">
                        <tspan x="11" y="40">$</tspan>
                    </text>
                    <text id="How-much-do-you-wish" font-family="HelveticaNeue-Medium, Helvetica Neue" font-size="9.24739261" font-weight="400" fill="#1F3B4C">
                        <tspan x="0" y="9">How much do you wish to donate?</tspan>
                    </text>
                </g>
                <g id="Group-8" transform="translate(1.000000, 268.000000)">
                    <g id="Group" transform="translate(0.000000, 18.494785)">
                        <rect id="Rectangle" stroke="#BCC1C5" stroke-width="1.16606376" fill="#FFFFFF" x="0.58303188" y="0.58303188" width="398.833936" height="34.3988809" rx="4.66425504"></rect>
                        <text id="Address-Line-1" font-family="HelveticaNeue, Helvetica Neue" font-size="11.5592408" font-weight="normal" fill="#BCC1C5">
                            <tspan x="12.1142201" y="21.8863459">Address Line 1</tspan>
                        </text>
                        <text id="Address-Line-1" font-family="HelveticaNeue, Helvetica Neue" font-size="7" font-weight="normal" fill="#182D39">
                            <tspan x="3" y="46.5052148">Address Line 1</tspan>
                        </text>
                    </g>
                    <text id="Billing-Address" font-family="HelveticaNeue-Medium, Helvetica Neue" font-size="9.24739261" font-weight="400" fill="#182D39">
                        <tspan x="0" y="9">Billing Address</tspan>
                    </text>
                </g>
                <g id="Group-3-Copy-4" transform="translate(1.000000, 201.000000)">
                    <rect id="Rectangle" stroke="#BCC1C5" stroke-width="1.16606376" fill="#FFFFFF" x="0.58303188" y="19.0778171" width="397.833936" height="34.3988809" rx="4.66425504"></rect>
                    <text id="Card-Number" font-family="HelveticaNeue, Helvetica Neue" font-size="11.5592408" font-weight="normal" fill="#BCC1C5">
                        <tspan x="33" y="41">Card Number</tspan>
                    </text>
                    <text id="MM/YY" font-family="HelveticaNeue, Helvetica Neue" font-size="11.5592408" font-weight="normal" fill="#BCC1C5">
                        <tspan x="263" y="41">MM/YY</tspan>
                    </text>
                    <text id="CVC" font-family="HelveticaNeue, Helvetica Neue" font-size="11.5592408" font-weight="normal" fill="#BCC1C5">
                        <tspan x="340" y="41">CVC</tspan>
                    </text>
                    <g id="001-credit-card" transform="translate(12.000000, 32.000000)" fill="#000000" fill-rule="nonzero">
                        <path d="M13,1.88636364 L13,1.27272727 C13,0.569818182 12.3634063,0 11.578125,0 L1.421875,0 C0.63659375,0 0,0.569818182 0,1.27272727 L0,1.88636364 C0,1.94911364 0.0568496094,2 0.126953125,2 L12.8730469,2 C12.9431504,2 13,1.94911364 13,1.88636364 Z" id="Path"></path>
                        <path d="M0,3.12931034 L0,7.55172414 C0,8.35158621 0.63659375,9 1.421875,9 L11.578125,9 C12.3634063,9 13,8.35158621 13,7.55172414 L13,3.12931034 C13,3.05790517 12.9431504,3 12.8730469,3 L0.126953125,3 C0.0568496094,3 0,3.05790517 0,3.12931034 Z M3.25,6.51724138 C3.25,6.74575862 3.06810156,6.93103448 2.84375,6.93103448 L2.4375,6.93103448 C2.21314844,6.93103448 2.03125,6.74575862 2.03125,6.51724138 L2.03125,6.10344828 C2.03125,5.87493103 2.21314844,5.68965517 2.4375,5.68965517 L2.84375,5.68965517 C3.06810156,5.68965517 3.25,5.87493103 3.25,6.10344828 L3.25,6.51724138 Z" id="Shape"></path>
                    </g>
                    <text id="Credit-Card" font-family="HelveticaNeue-Medium, Helvetica Neue" font-size="9.24739261" font-weight="400" fill="#15232B">
                        <tspan x="0" y="9">Credit Card</tspan>
                    </text>
                </g>
            </g>
        </g>
    </g>
</svg>